<svg xmlns="http://www.w3.org/2000/svg" width="1440" height="900" viewBox="0 0 1440 900">
  <defs>
    <style>
      .bg { fill:#09090b; }
      .surface { fill:#18181b; stroke:#27272a; stroke-width:1.5; }
      .field { fill:#0f0f12; stroke:#3f3f46; stroke-width:1.5; }
      .primary { fill:#8b5cf6; }
      .warning { fill:#f59e0b; }
      .text { font:700 34px Inter, Arial, sans-serif; fill:#f4f4f5; }
      .h2 { font:700 18px Inter, Arial, sans-serif; fill:#f4f4f5; }
      .body { font:500 14px Inter, Arial, sans-serif; fill:#a1a1aa; }
      .small { font:700 11px Inter, Arial, sans-serif; fill:#c4b5fd; }
      .mono { font:500 13px Consolas, monospace; fill:#d4d4d8; }
    </style>
  </defs>
  <rect class="bg" width="1440" height="900"/>
  <rect class="surface" x="0" y="0" width="1440" height="72"/>
  <circle cx="48" cy="36" r="18" fill="#8b5cf6"/>
  <text class="h2" x="82" y="43">ComicCraft Studio</text>

  <text class="text" x="120" y="150">Create New Comic</text>
  <text class="body" x="120" y="182">Paste a short story chapter. AI will create an editable storyboard before any image rendering.</text>

  <rect class="surface" x="120" y="230" width="760" height="560" rx="14"/>
  <text class="h2" x="154" y="276">Story input</text>
  <text class="body" x="154" y="306">Project title</text>
  <rect class="field" x="154" y="322" width="680" height="46" rx="8"/>
  <text class="mono" x="178" y="351">Thieu Nien Ca Hanh - Chapter 1</text>
  <text class="body" x="154" y="402">Original story text</text>
  <rect class="field" x="154" y="418" width="680" height="240" rx="8"/>
  <text class="mono" x="178" y="452">Outside the inn, snow covered the mountain road...</text>
  <text class="mono" x="178" y="482">A young man in white fur sat near the window...</text>
  <text class="mono" x="178" y="512">Suddenly, the wooden door flew open...</text>
  <rect class="warning" x="154" y="680" width="680" height="42" rx="8"/>
  <text class="body" x="178" y="706" fill="#111827">Demo target: 500-1,500 words. Longer text may be chunked or rejected.</text>
  <rect class="primary" x="644" y="742" width="190" height="38" rx="9"/>
  <text class="small" x="690" y="766">ANALYZE STORY</text>

  <rect class="surface" x="930" y="230" width="390" height="560" rx="14"/>
  <text class="h2" x="964" y="276">AI output preview</text>
  <text class="body" x="964" y="306">Expected structured JSON</text>
  <rect class="field" x="964" y="332" width="322" height="300" rx="10"/>
  <text class="mono" x="988" y="370">{</text>
  <text class="mono" x="1008" y="398">"panels": [</text>
  <text class="mono" x="1028" y="426">{ "orderIndex": 1,</text>
  <text class="mono" x="1048" y="454">"scenePrompt": "...",</text>
  <text class="mono" x="1048" y="482">"characters": ["Xiao Se"],</text>
  <text class="mono" x="1048" y="510">"dialogue": "..." }</text>
  <text class="mono" x="1008" y="538">]</text>
  <text class="mono" x="988" y="566">}</text>
  <rect class="field" x="964" y="662" width="322" height="44" rx="8"/>
  <text class="body" x="988" y="689">Errors keep user text intact</text>
  <rect class="field" x="964" y="724" width="322" height="44" rx="8"/>
  <text class="body" x="988" y="751">Retry or import sample JSON</text>
</svg>
